<svg xmlns="http://www.w3.org/2000/svg" xml:space="preserve" viewBox="0 0 502.422 502.422" width="22pt" height="22pt"><path d="M348.387 31.347H21.334C9.84 31.347.436 40.751.436 52.245v428.408c0 11.494 9.404 20.898 20.898 20.898h327.053c11.494 0 20.898-9.404 20.898-20.898V52.245c0-11.494-9.404-20.898-20.898-20.898z" style="fill:#ffd15c"/><path d="M28.125 59.225h312.424v413.78H28.125z" style="fill:#fff"/><path d="M255.391 0H114.33c-12.539 0-22.988 10.449-22.988 21.943v57.469h185.992V21.943C278.379 10.449 267.93 0 255.391 0z" style="fill:#ff7058"/><path d="M137.317 127.478h181.812v24.033H137.317zM137.317 212.114h181.812v24.033H137.317zM137.317 296.751h181.812v24.033H137.317zM137.317 381.388h181.812v24.033H137.317z" style="fill:#4cdbc4"/><path d="M49.546 364.669h57.469v57.469H49.546zM49.546 280.033h57.469v57.469H49.546zM49.546 195.396h57.469v57.469H49.546zM49.546 110.759h57.469v57.469H49.546z" style="fill:#cdd6e0"/><path d="M70.444 157.78 56.86 143.151l7.314-7.314 6.27 6.269 20.898-19.853 7.314 7.314zM71.489 241.371l-13.584-13.583 7.314-7.315 6.27 6.27 20.898-19.853 7.314 7.314z" style="fill:#40596b"/><path d="M424.664 413.78h-36.571l57.469 81.502c5.224 6.269 13.584 8.359 20.898 3.135 6.269-5.224 8.359-13.584 4.18-20.898l-45.976-63.739zM343.162 413.78l-44.931 64.784c-5.224 6.269-3.135 15.673 4.18 20.898 6.269 5.224 15.673 3.135 20.898-3.135l57.469-81.502h-37.616v-1.045z" style="fill:#334a5e"/><ellipse cx="383.913" cy="377.208" rx="118.073" ry="117.029" style="fill:#40596b"/><path d="M383.913 471.249c-52.245 0-94.041-41.796-94.041-94.041s42.841-94.041 94.041-94.041c52.245 0 94.041 41.796 94.041 94.041 0 51.2-41.796 94.041-94.041 94.041z" style="fill:#f2f2f2"/><circle cx="383.913" cy="298.841" r="8.359" style="fill:#ff7058"/><circle cx="383.913" cy="454.531" r="8.359" style="fill:#ff7058"/><circle cx="462.281" cy="377.208" r="8.359" style="fill:#ff7058"/><circle cx="305.546" cy="377.208" r="8.359" style="fill:#ff7058"/><path d="M380.779 377.208c0-3.135 3.135-6.269 6.269-6.269h35.527c3.135 0 6.269 3.135 6.269 6.269 0 3.135-3.135 6.269-6.269 6.269h-35.527c-3.135-1.044-6.269-3.134-6.269-6.269z" style="fill:#ffd15c"/><path d="M383.913 313.469c3.135 0 6.269 3.135 6.269 6.269v56.424c0 3.135-3.135 6.269-6.269 6.269-3.135 0-6.269-3.135-6.269-6.269v-56.424c0-3.134 3.135-6.269 6.269-6.269z" style="fill:#ffd15c"/><circle cx="383.913" cy="377.208" r="14.629" style="fill:#ff7058"/><path d="m347.342 235.102 106.58-105.535-48.065-48.065-106.58 105.535c-1.045 1.045-1.045 2.09-2.09 2.09 0 1.045-1.045 2.09-1.045 2.09l-1.045 2.09-9.404 35.527-6.269 25.078 25.078-6.269 36.571-9.404 2.09-1.045c1.045 0 2.09-1.045 2.09-1.045s1.044-1.047 2.089-1.047z" style="fill:#ffd15c"/><path d="M307.636 206.89 419.44 95.086l-14.629-14.629-105.535 106.58c-1.045 1.045-1.045 2.09-2.09 2.09 0 1.045-1.045 2.09-1.045 2.09l-1.045 2.09 12.54 13.583zM347.342 235.102l106.58-105.535-14.629-14.629-111.804 110.76 12.539 12.539 2.09-1.045c1.045 0 2.09-1.045 2.09-1.045 1.044 0 2.089-1.045 3.134-1.045z" style="fill:#ff7058"/><path d="m303.456 247.641-17.763-17.763-7.314 25.077z" style="fill:#334a5e"/><path d="m494.672 57.469-18.808-18.808c-8.359-8.359-21.943-8.359-29.257 0L419.44 65.829l48.065 48.065 27.167-27.167c8.36-7.315 8.36-20.898 0-29.258z" style="fill:#40596b"/><path d="M307.636 206.89 419.44 95.086l19.853 19.853-111.804 110.759z" style="fill:#f1543f"/><path d="m419.44 66.873 48.065 48.066-14.629 14.628-48.065-48.065z" style="fill:#ffd15c"/></svg>